<?xml version="1.0" encoding="utf-8"?>
<!-- Generator: Adobe Illustrator 24.1.0, SVG Export Plug-In . SVG Version: 6.00 Build 0)  -->
<svg version="1.1" id="Layer_1" xmlns="http://www.w3.org/2000/svg" xmlns:xlink="http://www.w3.org/1999/xlink" x="0px" y="0px"
	 viewBox="0 0 640 512" style="enable-background:new 0 0 640 512;" xml:space="preserve">
<style type="text/css">
	.st0{fill:#2FB3ED;}
</style>
<path class="st0" d="M512,448H127.1c-16.8,0-31.1,14.3-31.1,31.1s14.3,32.9,31.1,32.9h384c18.6,0,32.9-14.3,32.9-32
	S529.7,448,512,448z M592,0H48C21.5,0,0,21.5,0,48v320c0,26.5,21.5,48,48,48h544c26.5,0,48-21.5,48-48V48C640,21.5,618.5,0,592,0z
	 M576,352H64V64h512V352z"/>
</svg>
